<svg width="107.641602" height="51.100098" viewBox="0 0 107.642 51.1001" fill="none" xmlns="http://www.w3.org/2000/svg" xmlns:xlink="http://www.w3.org/1999/xlink">
	<desc>
			Created with Pixso.
	</desc>
	<defs/>
	<path id="Vector" d="M18.5 7.1C18.5 6 18.39 5.1 18.29 4.6C18.1 3.39 17.5 2.3 16.5 1.39C15.5 0.5 14.39 0.1 13 0.1C11.6 0.1 10.29 0.6 9.29 1.6C8.2 0.6 7 0.1 5.6 0.1C4.29 0.1 3 0.6 2.1 1.39C1.2 2.2 0.5 3.2 0.2 4.6C0.1 5.2 0 6 0 7.1L0 15.7C0 16.2 0.39 16.39 0.7 16.39C1.2 16.39 1.39 16 1.39 15.7L1.39 6.8C1.39 5.2 1.7 3.89 2.39 2.89C3.1 1.8 4.2 1.3 5.7 1.3C6.79 1.3 7.7 1.7 8.5 2.5C7.79 3.7 7.5 5 7.5 6.8L7.5 15.6C7.5 16 7.79 16.3 8.2 16.3C8.7 16.3 8.89 15.89 8.89 15.6L8.89 6.7C8.89 5.39 9.1 4.39 9.39 3.7C9.7 4.5 9.89 5.7 9.89 7.1L9.89 15.7C9.89 16.1 10.2 16.39 10.6 16.39C11.1 16.39 11.29 16 11.29 15.7L11.29 6.5C11.29 4.7 11 3.39 10.29 2.39C11 1.7 11.89 1.3 13 1.3C14 1.3 14.89 1.6 15.6 2.2C16.29 2.7 16.79 3.5 17.1 4.5C17.29 5.1 17.29 5.8 17.29 6.8L17.29 15.7C17.29 16.1 17.6 16.39 18 16.39C18.5 16.39 18.7 16 18.7 15.7L18.6 15.2L18.6 7.1L18.5 7.1Z" fill="#000000" fill-opacity="1.000000" fill-rule="nonzero"/>
	<path id="Vector" d="M34.7 2.6C33.1 1 31.1 0.2 28.79 0.2C26.5 0.2 24.5 1 22.89 2.6C21.29 4.2 20.5 6.2 20.5 8.5C20.5 10.8 21.29 12.8 23 14.4C24.7 16 26.7 16.8 29 16.8C30.7 16.8 32.29 16.3 33.6 15.4L33.6 15.6C33.6 16.3 34 16.5 34.29 16.5C34.6 16.5 35 16.2 35 15.6L35 14.3C36.6 12.6 37.39 10.7 37.39 8.5C37.2 6.1 36.29 4.1 34.7 2.6ZM33.39 8.6L33.39 13.8C32 15 30.5 15.6 28.79 15.6C26.89 15.6 25.2 14.9 23.89 13.5C22.5 12.2 21.89 10.6 21.89 8.6C21.89 6.6 22.6 5 24 3.6C25.39 2.2 27 1.5 29 1.5C30.89 1.5 32.6 2.2 33.89 3.6C35.2 5 36 6.6 36 8.5C36 9.9 35.6 11.1 34.89 12.2L34.89 8.6C34.7 7.6 33.39 7.6 33.39 8.6Z" fill="#000000" fill-opacity="1.000000" fill-rule="nonzero"/>
	<path id="Vector" d="M46.19 16.79C48.1 16.79 49.89 16.19 51.5 14.89C51.89 14.59 52.19 14.39 52.39 14.09L52.5 14.09L52.5 14C52.6 13.89 52.6 13.79 52.6 13.59C52.6 13.29 52.39 13 52 13L51.6 13L51.5 13.19L51.5 13.39C50.79 14 50 14.59 49.19 15C48.29 15.39 47.29 15.69 46.39 15.69C44.39 15.69 42.79 15 41.5 13.59C40.1 12.19 39.39 10.59 39.39 8.59C39.39 6.69 40.1 5 41.5 3.69C42.79 2.29 44.39 1.69 46.39 1.69C48.29 1.69 50 2.39 51.39 3.79L51.69 4L52.1 4L52.19 3.89C52.39 3.79 52.5 3.59 52.5 3.39L52.5 3.19L52.39 3.09C52.39 3.09 52.39 3 52.29 3C52.19 2.89 52.19 2.79 52.1 2.79C50.6 1.19 48.6 0.29 46.19 0.29C43.89 0.29 41.89 1.09 40.29 2.69C38.69 4.29 37.89 6.29 37.89 8.59C37.89 10.79 38.69 12.79 40.29 14.5C42 16 44 16.79 46.19 16.79Z" fill="#000000" fill-opacity="1.000000" fill-rule="nonzero"/>
	<path id="Vector" d="M66.8 2.6C65.2 1 63.2 0.2 60.89 0.2C58.6 0.2 56.6 1 55 2.6C53.39 4.2 52.6 6.2 52.6 8.5C52.6 10.8 53.39 12.8 55 14.4C56.7 16 58.7 16.8 61 16.8C62.7 16.8 64.3 16.3 65.6 15.4L65.6 15.6C65.6 16.3 66 16.5 66.3 16.5C66.6 16.5 67 16.2 67 15.6L67 14.3C68.6 12.6 69.39 10.7 69.39 8.5C69.3 6 68.5 4.1 66.8 2.6ZM65.5 8.6L65.5 13.8C64.1 15 62.6 15.6 60.89 15.6C59 15.6 57.3 14.9 55.89 13.5C54.5 12.2 53.89 10.6 53.89 8.6C53.89 6.6 54.6 5 56 3.6C57.39 2.2 59 1.5 61 1.5C62.89 1.5 64.6 2.2 65.89 3.6C67.3 5 68 6.6 68 8.5C68 9.9 67.6 11.2 66.89 12.3L66.89 8.7C66.8 7.6 65.5 7.6 65.5 8.6Z" fill="#000000" fill-opacity="1.000000" fill-rule="nonzero"/>
	<path id="Vector" d="M71.4 16.5C71.9 16.5 72.1 16.1 72.1 15.79L72.1 9.29C72.1 7.6 72.2 6.6 72.4 5.89C72.7 4.79 73.3 3.89 74.1 3.19C74.9 2.5 75.8 2.1 76.8 1.79C77.3 1.79 77.5 1.39 77.5 1.1C77.5 0.6 77.2 0.5 77 0.39L76.9 0.39L76.8 0.39C76.3 0.39 75.7 0.6 75 1C73.8 1.6 72.8 2.39 72.1 3.5C72.1 2.89 72.1 2.1 72.1 1.19C72.1 0.19 70.7 0.19 70.7 1.19L70.7 15.79C70.7 16.19 71 16.5 71.4 16.5Z" fill="#000000" fill-opacity="1.000000" fill-rule="nonzero"/>
	<path id="Vector" d="M92 2.6C90.39 1 88.39 0.2 86.09 0.2C83.79 0.2 81.79 1 80.19 2.6C78.59 4.2 77.79 6.2 77.79 8.5C77.79 10.8 78.59 12.8 80.19 14.4C81.89 16 83.89 16.8 86.19 16.8C88.5 16.8 90.5 16 92.09 14.3C93.69 12.6 94.5 10.6 94.5 8.3C94.5 6.1 93.69 4.1 92 2.6ZM86.09 1.5C88 1.5 89.69 2.2 91 3.6C92.39 5 93.09 6.6 93.09 8.5C93.09 10.5 92.39 12.2 90.89 13.5C89.59 14.9 88 15.5 86 15.5C84.09 15.5 82.39 14.8 81.09 13.4C79.69 12 79 10.4 79 8.5C79 6.5 79.69 4.9 81.09 3.5C82.39 2.1 84.09 1.5 86.09 1.5Z" fill="#000000" fill-opacity="1.000000" fill-rule="nonzero"/>
	<path id="Vector" d="M107.5 4.39C107.3 3.2 106.7 2.2 105.6 1.29C104.6 0.5 103.4 0 102.1 0C101.1 0 100.2 0.2 99.39 0.7C98.79 1.1 98.19 1.5 97.79 2.1L97.79 1.1C97.79 0.1 96.39 0.1 96.39 1.1L96.39 15.7C96.39 16.2 96.79 16.39 97.1 16.39C97.6 16.39 97.79 16 97.79 15.7L97.79 7.39C97.79 6.5 97.79 5.7 97.89 5.29C98.1 4.1 98.5 3.2 99.19 2.5C100 1.79 101 1.39 102 1.39C102.8 1.39 103.6 1.6 104.2 2C105.1 2.5 105.7 3.29 105.9 4.29C106.1 4.89 106.1 6 106.1 7.39L106.1 15.7C106.1 16.1 106.4 16.39 106.8 16.39C107 16.39 107.2 16.29 107.3 16.2L107.6 16.2L107.6 6.7C107.7 5.79 107.6 5 107.5 4.39Z" fill="#000000" fill-opacity="1.000000" fill-rule="nonzero"/>
	<path id="Vector" d="M31.29 35.7C30.59 35.7 30.5 36.1 30.5 36.4C30.5 36.9 30.89 37.1 31.19 37.1C32 37.1 32.59 37.3 33.29 37.7C34.59 38.4 35.29 39.6 35.29 41.1C35.29 42.2 34.89 43.1 34.09 43.9C33.29 44.7 32.39 45.1 31.29 45.1C29.69 45.1 28.59 44.4 27.69 43C27.39 42.6 27.19 42 27.19 41.3C27.19 40.8 26.89 40.5 26.5 40.5C26 40.5 25.79 40.9 25.79 41.2C25.79 42.6 26.39 43.9 27.5 44.8C28.5 45.8 29.79 46.3 31.19 46.3C32.69 46.3 34 45.8 35 44.7C36 43.7 36.59 42.4 36.59 40.9C36.59 39.4 36.09 38.2 35.09 37.2C34.09 36.3 32.79 35.7 31.29 35.7Z" fill="#000000" fill-opacity="1.000000" fill-rule="nonzero"/>
	<path id="Vector" d="M31 31.5C32.29 31.5 33.19 32 33.79 33.1C33.89 33.3 34.1 33.7 34.19 34.1C34.19 34.6 34.5 34.9 34.89 34.9C35.29 34.9 35.6 34.6 35.6 34.2C35.6 33 35 32 34 31.4C33.1 30.6 32.1 30.2 30.89 30.2C29.69 30.2 28.6 30.6 27.69 31.5C26.89 32.5 26.39 33.5 26.39 34.7C26.39 35.9 26.79 37 27.69 37.9C28.5 38.8 29.6 39.3 30.79 39.3C31.29 39.3 31.6 39 31.6 38.6C31.6 38.2 31.29 37.9 30.89 37.9C30 37.9 29.29 37.6 28.69 37C28.1 36.4 27.79 35.6 27.79 34.7C27.79 33.8 28.1 33 28.69 32.4C29.5 31.8 30.19 31.5 31 31.5Z" fill="#000000" fill-opacity="1.000000" fill-rule="nonzero"/>
	<path id="Vector" d="M48.69 36.9C48.69 35.8 48.59 35 48.5 34.5C48.19 33.2 47.59 32.2 46.69 31.5C45.69 30.6 44.69 30.2 43.39 30.2C42.5 30.2 41.59 30.4 40.79 30.9C40.09 31.2 39.59 31.7 39.19 32.2L39.19 26.2C39.19 25.2 37.79 25.2 37.79 26.2L37.79 45.3C37.79 45.8 38.19 46 38.5 46C39 46 39.19 45.6 39.19 45.3L39.19 37.3C39.19 36.7 39.19 36.2 39.29 35.8C39.29 35.5 39.29 35.3 39.29 35.2C39.5 34.1 39.89 33.2 40.59 32.5C41.39 31.8 42.19 31.5 43.39 31.5C44.19 31.5 45 31.7 45.59 32.1C46.5 32.7 47 33.4 47.19 34.3C47.39 34.9 47.39 35.9 47.39 37.3L47.39 45.3C47.39 45.7 47.69 46 48.09 46C48.59 46 48.79 45.6 48.79 45.3L48.69 44.8L48.69 36.9Z" fill="#000000" fill-opacity="1.000000" fill-rule="nonzero"/>
	<path id="Vector" d="M64.09 32.5C62.5 30.89 60.59 30.1 58.39 30.1C56.19 30.1 54.19 30.89 52.69 32.5C51.09 34.1 50.29 36 50.29 38.2C50.29 40.39 51.09 42.39 52.69 43.89C54.29 45.5 56.19 46.3 58.5 46.3C60.79 46.3 62.69 45.5 64.19 43.89C65.79 42.3 66.59 40.39 66.59 38.1C66.59 35.8 65.79 34 64.09 32.5ZM53.59 43C52.29 41.7 51.59 40.1 51.59 38.2C51.59 36.3 52.29 34.7 53.59 33.3C54.89 32 56.5 31.3 58.5 31.3C60.29 31.3 62 32 63.29 33.3C64.59 34.6 65.29 36.2 65.29 38.1C65.29 40 64.59 41.7 63.19 43C61.89 44.3 60.29 45 58.39 45C56.59 45 54.89 44.3 53.59 43Z" fill="#000000" fill-opacity="1.000000" fill-rule="nonzero"/>
	<path id="Vector" d="M76 30.1C73.69 30.1 71.79 30.89 70.29 32.5C68.79 34.1 67.89 36 67.89 38.2C67.89 40.39 68.69 42.3 70.19 43.89L70.19 50.39C70.19 50.8 70.5 51.1 70.89 51.1C71.39 51.1 71.6 50.7 71.6 50.39L71.6 45.1C72.89 46 74.39 46.39 76 46.39C78.29 46.39 80.29 45.6 81.79 44.1C83.39 42.5 84.29 40.7 84.29 38.39C84.29 36.1 83.39 34.2 81.79 32.6C80.19 30.89 78.29 30.1 76 30.1ZM70.89 37.5C70.6 37.5 70.19 37.8 70.19 38.3L70.19 41.7C69.6 40.7 69.29 39.5 69.29 38.2C69.29 36.39 70 34.7 71.29 33.39C72.69 32 74.29 31.39 76.19 31.39C78.1 31.39 79.69 32.1 81.1 33.39C82.39 34.7 83.1 36.3 83.1 38.3C83.1 40.2 82.39 41.8 81 43.1C79.69 44.39 78.1 45.1 76.19 45.1C74.5 45.1 73 44.5 71.69 43.3L71.69 38.3C71.6 37.6 71.19 37.5 70.89 37.5Z" fill="#000000" fill-opacity="1.000000" fill-rule="nonzero"/>
</svg>
