<svg width="61.201172" height="61.600098" viewBox="0 0 61.2012 61.6001" fill="none" xmlns="http://www.w3.org/2000/svg" xmlns:xlink="http://www.w3.org/1999/xlink">
	<desc>
			Created with Pixso.
	</desc>
	<defs/>
	<path id="Vector" d="M47.29 30L46.7 57.39C46.7 57.39 43.29 61.6 29.89 61.6C16.7 61.6 14.6 56.79 14.6 56.79L14.1 31.6C7 31.7 0 26 0 18.89C0 11.79 5.79 6 12.89 6C14.7 6 16.5 6.39 18.1 7.1C20.2 2.89 24.7 0 29.7 0C34.5 0 38.39 2.7 40.7 6.6C42.79 5 45.39 4.2 48.29 4.2C55.39 4.2 61.2 9.89 61.2 17.1C61.29 24.2 54.5 30 47.29 30Z" fill="#FFFFFF" fill-opacity="1.000000" fill-rule="nonzero"/>
</svg>
